<svg xmlns="http://www.w3.org/2000/svg" xmlns:xlink="http://www.w3.org/1999/xlink" width="1920" height="1021" viewBox="0 0 1920 1021"><defs><clipPath id="a"><rect width="1920" height="1021" transform="translate(0 53)" fill="#fff" stroke="#707070" stroke-width="1"/></clipPath><clipPath id="b"><rect width="1920" height="1032" transform="translate(0 55)" fill="#fff"/></clipPath></defs><g transform="translate(0 -53)" clip-path="url(#a)"><path d="M0,0H1930V1032H0Z" transform="translate(0 53)" fill="#f8fbff"/><g clip-path="url(#b)"><path d="M1253,0c692.013,0,1253,342.726,1253,765.5S1945.013,1531,1253,1531,0,1188.274,0,765.5,560.987,0,1253,0Z" transform="matrix(0.998, -0.07, 0.07, 0.998, -374.346, 187.27)" fill="#eef4ff"/></g><g transform="translate(-178.94 190.974)"><path d="M515.88,757.577l1938.661,7.7,50.45-77.32s-186.571-165.543-398.238-95.189c-181.292,60.316-401.721-50.321-501.778-54.409-242.517-9.908-307.851,141.616-453.383,141.616S946.071,529.685,781.2,553.742,515.88,757.577,515.88,757.577Z" transform="translate(-345.096 130.756)" fill="#cfe2fb"/><path d="M729.515,643.875s33.468,2.163,38.941,0-1.86-7.961-12.98-7.961-16.334-.173-21.915,1.211a5.365,5.365,0,0,0-4.045,6.75Z" transform="translate(-96.803 244.783)" fill="#aecbf0"/><path d="M740.364,645.4s-15.014-14.192-8.935-14.6S743.2,634.037,744,636.871s.822-10.557,4.868-10.146,6.079,4.868,4.457,10.557c0,0,5.279-4.457,10.146-4.457s4.067,6.079,1.212,8.113-11.358,7.312-11.358,7.312H739.931Z" transform="translate(-96.013 234.09)" fill="#aecbf0"/><path d="M1225.6,645.185s33.468,2.163,38.941,0-1.86-7.961-12.98-7.961-16.334-.173-21.915,1.212a5.365,5.365,0,0,0-4.045,6.75Z" transform="translate(480.346 246.307)" fill="#aecbf0"/><path d="M1236.454,646.705s-15.014-14.192-8.935-14.6,11.769,3.245,12.57,6.079.822-10.557,4.867-10.146,6.079,4.868,4.457,10.557c0,0,5.279-4.457,10.146-4.457s4.067,6.079,1.212,8.113-11.358,7.312-11.358,7.312h-13.391Z" transform="translate(481.135 235.614)" fill="#aecbf0"/><path d="M617.255,645.845s33.468,2.163,38.941,0-1.86-7.961-12.98-7.961-16.334-.173-21.915,1.211a5.365,5.365,0,0,0-4.045,6.75Z" transform="translate(-227.406 247.075)" fill="#aecbf0"/><path d="M628.1,647.355s-15.014-14.192-8.935-14.6,11.769,3.245,12.569,6.079.822-10.557,4.868-10.146,6.079,4.868,4.457,10.557c0,0,5.279-4.457,10.146-4.457s4.067,6.079,1.212,8.113-11.358,7.312-11.358,7.312H627.671Z" transform="translate(-226.616 236.37)" fill="#aecbf0"/><path d="M1295.335,646.665s33.468,2.163,38.941,0-1.86-7.961-12.98-7.961-16.334-.173-21.915,1.212a5.365,5.365,0,0,0-4.046,6.75Z" transform="translate(561.469 248.029)" fill="#e9edfa"/><path d="M1306.184,648.185s-15.014-14.192-8.935-14.6,11.769,3.245,12.57,6.079.822-10.557,4.867-10.146,6.079,4.868,4.457,10.557c0,0,5.279-4.457,10.146-4.457s4.067,6.079,1.212,8.113-11.358,7.312-11.358,7.312h-13.391Z" transform="translate(562.259 237.336)" fill="#aecbf0"/><path d="M554.045,644.195s33.468,2.163,38.941,0-1.86-7.961-12.98-7.961-16.334-.173-21.915,1.212a5.365,5.365,0,0,0-4.046,6.75Z" transform="translate(-300.944 245.155)" fill="#aecbf0"/><path d="M564.894,645.715s-15.014-14.192-8.935-14.6,11.769,3.245,12.569,6.079.822-10.557,4.868-10.146,6.079,4.868,4.457,10.557c0,0,5.279-4.457,10.146-4.457s4.067,6.079,1.211,8.113-11.358,7.312-11.358,7.312H564.461Z" transform="translate(-300.154 234.462)" fill="#aecbf0"/><path d="M1334.975,646.965s33.468,2.163,38.941,0-1.861-7.961-12.98-7.961-16.334-.173-21.915,1.211a5.365,5.365,0,0,0-4.045,6.75Z" transform="translate(607.586 248.378)" fill="#e9edfa"/><path d="M1345.824,648.485s-15.014-14.192-8.935-14.6,11.769,3.245,12.569,6.079.822-10.557,4.868-10.146,6.079,4.868,4.457,10.557c0,0,5.279-4.457,10.146-4.457s4.067,6.079,1.211,8.113-11.358,7.312-11.358,7.312h-13.391Z" transform="translate(608.376 237.685)" fill="#aecbf0"/><path d="M736.793,775.251l18.194.627-.909-63.863s17.112-17.112,28.514-15.966,37.621,6.836,52.462-7.983,3.418-30.785,11.4-30.785-6.836-18.237-6.836-26.22c0-5.149,15.252-86.536-18.151-78.531-29.336,6.945-42.662-46.773-74.681-26.264-25.29,16.2-59.3,6.685-61.635,22.586-5.646,38.141-38.249,26.069-33.533,47.984,6.836,31.932,2.163,45.626,15.814,49.044s-3.418,18.237,2.271,29.66,1.147,22.8,17.112,22.8,26.22,4.565,36.5,6.836,12.548,7.983,12.548,7.983Z" transform="translate(-187.718 111.762)" fill="#aecbf0"/><path d="M1413.053,778.421l18.194.627-.909-63.863s17.113-17.112,28.514-15.966,37.621,6.836,52.462-7.983,3.418-30.785,11.4-30.785-6.836-18.237-6.836-26.22c0-5.149,15.252-86.536-18.151-78.531-29.336,6.945-42.662-46.773-74.681-26.264-25.29,16.2-59.3,6.685-61.635,22.586-5.646,38.141-38.249,26.069-33.533,47.984,6.836,31.932,2.164,45.626,15.815,49.044s-3.418,18.237,2.272,29.66,1.146,22.8,17.112,22.8,26.22,4.565,36.5,6.836,12.548,7.983,12.548,7.983Z" transform="translate(378.04 110.45)" fill="#aecbf0"/><path d="M645.041,807.611l18.194.779-.887-79.05s17.112-21.18,28.514-19.752,37.621,8.459,52.462-9.887,3.418-38.119,11.4-38.119-6.836-22.586-6.836-32.451c0-6.382,15.252-107-18.151-97.223-29.336,8.654-42.662-57.892-74.68-32.451-25.29,20.055-59.3,8.286-61.635,27.951-5.646,47.205-38.249,32.278-33.533,59.407,6.836,39.525,2.163,56.486,15.814,60.726s-3.418,22.586,2.272,36.778,1.147,28.124,17.112,28.124,26.22,5.646,36.5,8.459,12.548,9.887,12.548,9.887Z" transform="translate(-294.436 79.251)" fill="#aecbf0"/></g></g></svg>