<svg width="245" height="242" viewBox="0 0 245 242" xmlns="http://www.w3.org/2000/svg" xmlns:xlink="http://www.w3.org/1999/xlink" fill="none" overflow="hidden"><defs><radialGradient cx="0" cy="0" r="1" gradientUnits="userSpaceOnUse" id="paint0_radial" gradientTransform="matrix(52.6654 0 0 52.6654 186.618 190.428)"><stop offset="0" stop-color="#797673" stop-opacity="0"/><stop offset="0.7898" stop-color="#737373"/></radialGradient><linearGradient x1="83.2912" y1="137.345" x2="73.2943" y2="186.066" gradientUnits="userSpaceOnUse" id="paint1_linear"><stop offset="0" stop-color="#522CD5"/><stop offset="0.4397" stop-color="#8A6FE8"/></linearGradient><linearGradient x1="81.3685" y1="186.888" x2="52.4783" y2="238.947" gradientUnits="userSpaceOnUse" id="paint2_linear"><stop offset="0" stop-color="#522CD5"/><stop offset="0.4397" stop-color="#8A6FE8"/></linearGradient><radialGradient cx="0" cy="0" r="1" gradientUnits="userSpaceOnUse" id="paint3_radial" gradientTransform="matrix(-21.9969 2.69384e-15 -2.69384e-15 -21.9969 60.5881 213.844)"><stop offset="0.034" stop-color="#522CD5"/><stop offset="0.9955" stop-color="#8A6FE8"/></radialGradient><linearGradient x1="110.844" y1="143.95" x2="113.674" y2="199.087" gradientUnits="userSpaceOnUse" id="paint4_linear"><stop offset="0.0624" stop-color="#522CD5"/><stop offset="0.3999" stop-color="#8A6FE8"/></linearGradient><linearGradient x1="118.065" y1="179.901" x2="119.059" y2="241.237" gradientUnits="userSpaceOnUse" id="paint5_linear"><stop offset="0" stop-color="#522CD5"/><stop offset="0.4397" stop-color="#8A6FE8"/></linearGradient><radialGradient cx="0" cy="0" r="1" gradientUnits="userSpaceOnUse" id="paint6_radial" gradientTransform="matrix(18.3474 9.79551 -9.79551 18.3474 123.782 216.762)"><stop offset="0.034" stop-color="#522CD5"/><stop offset="0.9955" stop-color="#8A6FE8"/></radialGradient><radialGradient cx="0" cy="0" r="1" gradientUnits="userSpaceOnUse" id="paint7_radial" gradientTransform="matrix(56.9196 5.74403 -5.74403 56.9196 88.3688 72.4757)"><stop offset="0.4744" stop-color="#A08BE8"/><stop offset="0.8618" stop-color="#8065E0"/></radialGradient><radialGradient cx="0" cy="0" r="1" gradientUnits="userSpaceOnUse" id="paint8_radial" gradientTransform="matrix(73.85 7.45255 -7.45255 73.85 118.773 26.0618)"><stop offset="0.456" stop-color="#E1DFDD"/><stop offset="0.8188" stop-color="#FFFFFF"/></radialGradient><radialGradient cx="0" cy="0" r="1" gradientUnits="userSpaceOnUse" id="paint9_radial" gradientTransform="matrix(19.3341 -15.0004 15.0004 19.3341 51.7206 26.2127)"><stop offset="0.5301" stop-color="#605D5A"/><stop offset="1" stop-color="#797673"/></radialGradient><radialGradient cx="0" cy="0" r="1" gradientUnits="userSpaceOnUse" id="paint10_radial" gradientTransform="matrix(16.7343 -12.9833 12.9833 16.7343 31.2685 42.68)"><stop offset="0.3565" stop-color="#E1DFDD"/><stop offset="1" stop-color="#B3AFAB"/></radialGradient><radialGradient cx="0" cy="0" r="1" gradientUnits="userSpaceOnUse" id="paint11_radial" gradientTransform="matrix(30.4128 -23.5957 23.5957 30.4128 66.5483 39.2272)"><stop offset="0.5301" stop-color="#605D5A"/><stop offset="1" stop-color="#797673"/></radialGradient><radialGradient cx="0" cy="0" r="1" gradientUnits="userSpaceOnUse" id="paint12_radial" gradientTransform="matrix(11.725 0 0 11.725 179.749 111.956)"><stop offset="0" stop-color="#8065E0"/><stop offset="0.8628" stop-color="#512BD4"/></radialGradient><linearGradient x1="58.911" y1="133.004" x2="82.65" y2="235.25" gradientUnits="userSpaceOnUse" id="paint13_linear"><stop offset="0.1193" stop-color="#C5D43B"/><stop offset="0.2631" stop-color="#E1EA95"/></linearGradient><radialGradient cx="0" cy="0" r="1" gradientUnits="userSpaceOnUse" id="paint14_radial" gradientTransform="matrix(16.8821 0 0 16.8821 46.2571 155.319)"><stop offset="0" stop-color="#8065E0"/><stop offset="0.8628" stop-color="#512BD4"/></radialGradient><radialGradient cx="0" cy="0" r="1" gradientUnits="userSpaceOnUse" id="paint15_radial" gradientTransform="matrix(13.6575 1.37825 -1.37825 13.6575 38.553 102.948)"><stop offset="0" stop-color="#8065E0"/><stop offset="0.8628" stop-color="#512BD4"/></radialGradient></defs><path d="M203.089 161.487 173.852 161.487 173.852 163.278 203.089 163.278 203.089 161.487Z" fill="#605D5A"/><path d="M173.719 160.741 168.696 160.741C166.938 160.741 165.517 162.166 165.517 163.92L165.517 167.607 174.788 167.607 174.788 161.81C174.788 161.216 174.308 160.741 173.719 160.741Z" fill="#B3AFAB"/><path d="M202.699 160.741 207.722 160.741C209.48 160.741 210.901 162.166 210.901 163.92L210.901 167.607 201.63 167.607 201.63 161.81C201.63 161.216 202.11 160.741 202.699 160.741Z" fill="#B3AFAB"/><path d="M216.85 232.696 159.235 232.696C155.885 232.696 153.167 229.978 153.167 226.628L153.167 170.605C153.167 167.255 155.885 164.537 159.235 164.537L216.85 164.537C220.2 164.537 222.918 167.255 222.918 170.605L222.918 226.628C222.918 229.978 220.2 232.696 216.85 232.696Z" fill="#605D5A"/><path d="M215.348 227.388 161.264 227.388C160.162 227.388 159.269 226.495 159.269 225.393L159.269 172.629C159.269 171.527 160.162 170.634 161.264 170.634L215.353 170.634C216.456 170.634 217.349 171.527 217.349 172.629L217.349 225.388C217.349 226.495 216.451 227.388 215.348 227.388Z" fill="#B3AFAB"/><path d="M165.897 181.325C167.553 181.325 168.896 179.983 168.896 178.327 168.896 176.671 167.553 175.328 165.897 175.328 164.241 175.328 162.899 176.671 162.899 178.327 162.899 179.983 164.241 181.325 165.897 181.325Z" fill="#E1DFDD"/><path d="M159.264 186.813 159.264 225.393C159.264 226.495 160.157 227.388 161.26 227.388L215.348 227.388C216.451 227.388 217.344 226.495 217.344 225.393L217.344 186.813 159.264 186.813Z" fill="url(#paint0_radial)"/><path d="M191.214 181.325C192.87 181.325 194.213 179.983 194.213 178.327 194.213 176.671 192.87 175.328 191.214 175.328 189.559 175.328 188.216 176.671 188.216 178.327 188.216 179.983 189.559 181.325 191.214 181.325Z" fill="#E1DFDD"/><path d="M200.879 181.325C202.535 181.325 203.878 179.983 203.878 178.327 203.878 176.671 202.535 175.328 200.879 175.328 199.224 175.328 197.881 176.671 197.881 178.327 197.881 179.983 199.224 181.325 200.879 181.325Z" fill="#E1DFDD"/><path d="M210.73 181.325C212.386 181.325 213.728 179.983 213.728 178.327 213.728 176.671 212.386 175.328 210.73 175.328 209.074 175.328 207.731 176.671 207.731 178.327 207.731 179.983 209.074 181.325 210.73 181.325Z" fill="#E1DFDD"/><path d="M217.344 186.58 159.283 186.58 159.283 188.438 217.344 188.438 217.344 186.58Z" fill="#797673"/><path d="M78.8645 232.368C77.0493 232.368 75.0299 232.088 72.7538 231.451 64.1437 229.047 56.3413 224.057 48.7956 219.23 45.9825 217.429 43.2503 215.685 40.5941 214.15 37.9854 220.684 34.0082 226.671 27.9355 229.736 19.6865 233.898 12.2405 231.418 9.15188 226.809 5.35525 221.145 8.74798 215.015 13.1908 211.161 21.5539 203.915 30.2401 205.925 39.2826 210.71 43.0507 199.553 43.179 187.507 43.179 187.308 43.1838 186.652 43.7112 186.124 44.367 186.124L44.3717 186.124C45.0274 186.129 45.5549 186.661 45.5549 187.317 45.5501 188.153 45.4171 200.432 41.4304 211.888 44.2767 213.509 47.1562 215.352 50.0738 217.215 57.4722 221.948 65.1225 226.837 73.3905 229.147 83.3454 231.931 87.4271 227.227 91.756 222.252 94.9016 218.636 98.1518 214.896 103.645 214.003 109.95 212.976 115.952 216.35 122.3 219.919 128.168 223.216 134.241 226.628 141.331 227.251 147.232 227.764 152.82 225.654 157.929 220.974 168.701 211.099 174.517 192.306 174.517 179.638 174.517 178.983 175.049 178.45 175.705 178.45 176.361 178.45 176.893 178.983 176.893 179.638 176.893 193.147 170.929 212.283 159.535 222.727 153.913 227.878 147.717 230.201 141.122 229.622 133.519 228.956 126.938 225.26 121.131 221.995 114.892 218.488 109.508 215.457 104.02 216.35 99.3777 217.106 96.5409 220.365 93.5426 223.815 90.0263 227.878 86.1204 232.368 78.8645 232.368ZM25.2175 208.809C21.6252 208.809 18.1469 210.016 14.7494 212.962 10.0595 217.03 8.67195 221.829 11.1286 225.488 14.4406 230.43 21.5539 230.296 26.8663 227.616 32.3926 224.827 36.0514 219.177 38.4653 212.967 33.8514 210.491 29.4513 208.809 25.2175 208.809Z" fill="#C5D43B"/><path d="M176.422 184.865 174.902 184.865C174.417 184.865 174.027 184.471 174.027 183.991L174.027 178.051C174.027 177.566 174.422 177.177 174.902 177.177L176.422 177.177C176.907 177.177 177.297 177.571 177.297 178.051L177.297 183.991C177.301 184.475 176.907 184.865 176.422 184.865Z" fill="#797673"/><path d="M175.567 181.325C177.223 181.325 178.565 179.983 178.565 178.327 178.565 176.671 177.223 175.328 175.567 175.328 173.911 175.328 172.569 176.671 172.569 178.327 172.569 179.983 173.911 181.325 175.567 181.325Z" fill="#E1DFDD"/><path d="M155.32 142.114C147.617 142.114 139.72 138.312 131.823 130.814 124.69 124.038 119.383 115.956 116.85 111.741L127.038 105.63C133.956 117.158 145.607 130.524 155.643 130.234 161.549 130.068 167.18 124.965 172.383 115.072L182.899 120.598C175.553 134.573 166.496 141.81 155.98 142.109 155.757 142.109 155.538 142.114 155.32 142.114Z" fill="#8A6FE8"/><path d="M68.0923 185.05C67.9308 174.834 69.2945 154.093 79.7626 136.678L90.1023 142.893C80.6084 158.688 79.9717 177.072 80.2282 185.088 80.2473 185.749 74.0652 186.381 68.0923 185.05Z" fill="url(#paint1_linear)"/><path d="M80.2187 184.974 70.6678 184.974 61.9864 236.079 81.1501 236.079C82.6089 236.079 83.7065 234.896 83.6067 233.437L80.2187 184.974Z" fill="#522CD5"/><path d="M46.7 222.974C45.0559 224.29 45.094 225.948 45.2318 227.944L45.6594 234.059C45.7354 235.152 46.6953 236.046 47.7929 236.046L71.9127 236.046C73.1529 236.046 74.089 235.038 74.0035 233.798L73.7754 227.459C73.6138 225.155 75.1439 223.758 76.1465 221.135 78.1375 215.932 78.8455 198.141 77.9237 184.974L68.0876 184.974C67.4746 192.8 62.6564 210.196 46.7 222.974Z" fill="url(#paint2_linear)"/><path d="M73.7754 227.46 74.0035 233.798C74.089 235.039 73.1529 236.046 71.9127 236.046L47.7929 236.046C46.6953 236.046 45.7402 235.153 45.6594 234.06L45.2317 227.944C45.1272 226.471 45.0844 225.183 45.7259 224.081L74.6972 224.081C74.127 225.174 73.6851 226.177 73.7754 227.46Z" fill="url(#paint3_radial)"/><path d="M116.223 198.954 105.308 192.183C111.076 182.888 114.868 176.55 117.197 171.674 119.696 166.438 119.539 164.746 119.487 164.475 119.278 164.233 117.99 163.05 111.732 161.705 94.8446 158.075 91.2285 157.785 91.0812 157.771 91.257 157.785 91.3283 157.78 91.3283 157.78L91.4804 144.936C93.7469 144.965 102.11 146.495 114.431 149.146 121.578 150.681 128.568 152.99 131.305 159.429 134.982 168.072 129 178.355 116.223 198.954Z" fill="url(#paint4_linear)"/><path d="M113.68 178.992 122.005 183.44 105.788 232.04 89.076 223.117C87.8025 222.437 87.3939 220.893 88.1636 219.672L113.68 178.992Z" fill="#522CD5"/><path d="M129.86 229.95C130.687 231.86 129.775 233.494 128.724 235.172L125.503 240.304C124.928 241.221 123.673 241.553 122.718 241.045L105.308 231.75C104.224 231.171 103.878 229.859 104.533 228.819L107.627 223.368C108.838 221.434 108.563 220.337 108.031 217.609 107.114 212.948 108.748 191.118 115.681 180.066L124.253 184.642C121.15 191.75 121.972 211.698 129.86 229.95Z" fill="url(#paint5_linear)"/><path d="M128.724 235.167C129.456 233.998 130.112 232.843 130.164 231.608L108.444 220.014C108.568 221.221 108.406 222.124 107.627 223.364L104.533 228.814C103.882 229.855 104.229 231.166 105.308 231.746L122.718 241.04C123.673 241.549 124.928 241.216 125.503 240.299L128.724 235.167Z" fill="url(#paint6_radial)"/><path d="M136.779 85.8297C135.039 68.8422 127.826 57.4523 127.826 57.4523L131.471 56.0933 131.537 55.9888C115.724 29.5216 82.8085 17.2717 52.8868 28.4288 19.1733 40.9971 2.0338 78.5167 14.6021 112.226 27.1705 145.934 64.6901 163.074 98.3989 150.505 124.999 140.589 141.274 115.134 140.784 88.2768 140.651 87.1791 139.958 85.3782 136.779 85.8297Z" fill="url(#paint7_radial)"/><path d="M136.779 85.8295C135.058 69.0512 128.007 57.7373 127.836 57.4664L64.5095 81.0778C64.5095 81.0778 60.3708 82.1612 61.725 85.8058 63.084 89.4503 67.0755 99.6903 71.3188 111.08 72.1931 113.423 74.5309 113.836 76.042 113.276 76.042 113.271 136.869 88.2909 136.779 85.8295Z" fill="url(#paint8_radial)"/><path d="M98.5747 100.127C98.5747 100.127 105.436 88.7851 106.809 86.6516 108.178 84.518 109.813 83.8195 112.117 84.6748 114.422 85.5302 127.019 89.5216 127.019 89.5216L98.5747 100.127Z" fill="#A08BE8"/><path d="M140.803 89.0702C140.803 89.0702 141.283 85.188 136.779 85.8295 136.779 85.8105 74.5024 108.994 74.5024 108.994 73.0532 109.536 70.8674 109.365 70.1831 108.02 70.5585 109.027 70.9434 110.044 71.3235 111.071 72.1171 113.195 74.1128 113.732 75.6048 113.39 75.7521 113.352 75.8994 113.318 76.0467 113.261L80.3043 111.674 140.803 89.0702Z" fill="#512BD4"/><path d="M139.796 100.755 34.5404 139.999C38.3988 143.131 42.5946 145.801 47.0327 147.968L135.572 114.953C137.506 110.41 138.931 105.649 139.796 100.755Z" fill="#D0C5F3"/><path d="M132.592 71.5126 116.617 77.5378C117.819 79.8376 121.882 80.6549 126.097 79.3434 130.616 77.9369 133.6 74.6202 132.763 71.9307 132.721 71.7882 132.659 71.6456 132.592 71.5126Z" fill="#8065E0"/><path d="M98.2706 84.4609 82.338 90.4719C83.6828 92.6006 87.603 93.3277 91.6799 92.0542 96.1988 90.6477 99.1829 87.331 98.3466 84.6415 98.3229 84.5845 98.2944 84.5227 98.2706 84.4609Z" fill="#8065E0"/><path d="M112.588 127.3 132.54 119.786 125.894 102.137 105.942 109.651 112.588 127.3Z" fill="#512BD4"/><path d="M113.576 119.405C113.443 119.453 113.315 119.453 113.186 119.4 113.058 119.343 112.972 119.253 112.925 119.13 112.877 119.001 112.882 118.878 112.944 118.749 113.001 118.626 113.101 118.536 113.234 118.488 113.367 118.436 113.5 118.441 113.628 118.498 113.756 118.555 113.847 118.645 113.894 118.773 113.942 118.897 113.932 119.025 113.871 119.149 113.809 119.267 113.714 119.358 113.576 119.405Z" fill="#FFFFFF"/><path d="M118.86 117.348 117.995 117.671 114.379 114.934C114.289 114.863 114.203 114.787 114.132 114.706L114.113 114.715C114.17 114.815 114.26 115.034 114.388 115.376L115.586 118.578 114.821 118.863 112.996 113.979 113.918 113.637 117.425 116.321C117.572 116.431 117.667 116.511 117.715 116.554L117.729 116.549C117.658 116.431 117.567 116.212 117.449 115.903L116.275 112.758 117.035 112.472 118.86 117.348Z" fill="#FFFFFF"/><path d="M122.58 115.955 119.905 116.953 118.081 112.068 120.646 111.109 120.903 111.798 119.126 112.463 119.644 113.846 121.283 113.233 121.54 113.917 119.9 114.53 120.442 115.974 122.324 115.271 122.58 115.955Z" fill="#FFFFFF"/><path d="M124.814 110.339 123.445 110.852 125.013 115.048 124.225 115.342 122.656 111.147 121.293 111.655 121.036 110.966 124.562 109.65 124.814 110.339Z" fill="#FFFFFF"/><path d="M42.5708 1.81418 17.5482 17.205C12.4258 20.3554 10.4396 26.8225 12.9105 32.306L22.6943 53.9977 71.946 23.7054 56.1607 4.14728C52.863 0.0607906 47.0422-0.937073 42.5708 1.81418Z" fill="url(#paint9_radial)"/><path d="M18.2087 44.0476 22.6943 53.9977 71.946 23.7007 65.094 15.2094 18.2087 44.0476Z" fill="url(#paint10_radial)"/><path d="M10.5156 59.6524C13.4522 62.9026 17.9331 63.9385 21.2735 61.881L76.3604 28.0011C79.7008 25.9484 80.7985 21.4817 79.2209 17.3905L10.5156 59.6524Z" fill="url(#paint11_radial)"/><path d="M179.749 123.677C186.223 123.677 191.471 118.429 191.471 111.954 191.471 105.48 186.223 100.232 179.749 100.232 173.274 100.232 168.026 105.48 168.026 111.954 168.026 118.429 173.274 123.677 179.749 123.677Z" fill="url(#paint12_radial)"/><path d="M236.57 88.0772C238.21 88.0772 239.54 86.7476 239.54 85.1074 239.54 83.4672 238.21 82.1376 236.57 82.1376 234.93 82.1376 233.6 83.4672 233.6 85.1074 233.6 86.7476 234.93 88.0772 236.57 88.0772Z" fill="#E1DFDD"/><path d="M230.122 88.79C231.762 88.79 233.092 87.4604 233.092 85.8202 233.092 84.18 231.762 82.8503 230.122 82.8503 228.481 82.8503 227.152 84.18 227.152 85.8202 227.152 87.4604 228.481 88.79 230.122 88.79Z" fill="#E1DFDD"/><path d="M223.674 89.5028C225.314 89.5028 226.643 88.1731 226.643 86.5329 226.643 84.8927 225.314 83.5631 223.674 83.5631 222.033 83.5631 220.704 84.8927 220.704 86.5329 220.704 88.1731 222.033 89.5028 223.674 89.5028Z" fill="#E1DFDD"/><path d="M217.225 90.2202C218.866 90.2202 220.195 88.8905 220.195 87.2503 220.195 85.6102 218.866 84.2805 217.225 84.2805 215.585 84.2805 214.256 85.6102 214.256 87.2503 214.256 88.8905 215.585 90.2202 217.225 90.2202Z" fill="#E1DFDD"/><path d="M210.777 90.9329C212.418 90.9329 213.747 89.6033 213.747 87.9631 213.747 86.3229 212.418 84.9933 210.777 84.9933 209.137 84.9933 207.808 86.3229 207.808 87.9631 207.808 89.6033 209.137 90.9329 210.777 90.9329Z" fill="#E1DFDD"/><path d="M204.329 91.6457C205.969 91.6457 207.299 90.3161 207.299 88.6759 207.299 87.0357 205.969 85.7061 204.329 85.7061 202.689 85.7061 201.359 87.0357 201.359 88.6759 201.359 90.3161 202.689 91.6457 204.329 91.6457Z" fill="#E1DFDD"/><path d="M190.64 110.41 192.041 98.8873C192.393 95.8129 190.188 93.0379 187.114 92.6863 184.039 92.3346 181.264 94.5394 180.913 97.6138L179.478 109.427 190.64 110.41Z" fill="#8A6FE8"/><path d="M96.1703 129.227 76.0943 129.227 76.0943 146.984 96.1703 146.984 96.1703 129.227Z" fill="#512BD4"/><path d="M77.0541 118.046C77.0541 118.046 83.2551 113.138 84.4668 112.23 85.6785 111.323 86.7381 111.27 87.8453 112.23 88.9572 113.19 95.1677 118.046 95.1677 118.046L77.0541 118.046Z" fill="#A08BE8"/><path d="M104.282 132.957C104.282 132.957 99.0166 132.815 101.245 124.081 104.567 111.094 89.6509 102.974 78.4464 114.079 67.2418 125.183 63.7065 127.692 45.1367 126.039 22.7608 124.048 1.77719 136.806 15.7805 171.736 29.7839 206.666 50.5109 214.54 70.9196 191.218 83.0508 177.357 87.4651 175.191 98.741 176.412 107.304 177.338 115.253 173.081 117.871 170.311 121.05 166.951 119.995 160.413 111.628 161.677 103.26 162.941 98.3989 160.365 97.0209 156.92 95.6381 153.47 97.7336 148.282 103.07 145.967 108.397 143.663 104.282 132.957 104.282 132.957Z" fill="#E1EA95"/><path d="M104.282 132.957C104.282 132.957 99.0166 132.815 101.245 124.081 104.567 111.094 91.3996 107.155 80.1902 118.26 68.9809 129.365 65.4504 131.874 46.8806 130.22 24.5047 128.229 1.77719 136.811 15.7805 171.736 29.7839 206.661 50.5109 214.54 70.9196 191.218 83.0508 177.357 87.4651 175.191 98.741 176.412 107.304 177.338 115.253 173.081 117.871 170.311 121.05 166.951 119.995 160.413 111.628 161.677 103.26 162.941 98.3989 160.365 97.0209 156.92 95.6381 153.47 97.7336 148.282 103.07 145.967 108.397 143.663 104.282 132.957 104.282 132.957Z" fill="url(#paint13_linear)"/><path d="M73.8182 183.71 55.7616 138.664C55.7616 138.664 61.9626 129.393 80.3756 129.317 98.7885 129.246 99.259 135.841 99.259 135.841L95.7142 148.486C95.7142 148.486 91.8938 153.499 94.3409 158.517 96.7881 163.539 99.8007 164.342 105.156 164.884 112.953 165.673 110.559 174.026 99.6011 173.375 86.0064 172.563 78.1328 177.543 73.8182 183.71Z" fill="#FFFFFF"/><path d="M80.3898 158.445 77.9142 159.439C76.9401 159.828 75.8377 159.358 75.448 158.384L70.2781 145.487C69.8885 144.513 70.3589 143.411 71.333 143.021L73.8087 142.028C74.7828 141.639 75.8852 142.109 76.2748 143.083L81.4447 155.979C81.8344 156.949 81.3592 158.056 80.3898 158.445Z" fill="#C8C6C4"/><path d="M194.341 96.749C196.056 96.06 197.035 93.8837 197.52 92.3917 197.815 91.4794 198.603 90.8189 199.559 90.7001 206.624 89.8353 234.251 86.4805 238.518 86.281 246.377 85.9151 245.313 98.5927 238.527 97.5853 234.089 96.9296 230.459 96.1218 227.461 99.9327 224.462 103.744 223.925 106.937 214.36 106.751 204.011 106.547 198.984 108.324 198.984 108.324L194.341 96.749Z" fill="#C5D43B"/><path d="M74.1603 181.743 45.9778 193.043C43.6162 193.988 40.9362 192.843 39.9906 190.482 39.045 188.12 40.1902 185.44 42.5518 184.494L70.7343 173.195C73.0959 172.249 75.7759 173.394 76.7215 175.756 77.6671 178.118 76.5219 180.798 74.1603 181.743Z" fill="#C8C6C4"/><path d="M44.8516 191.014C46.3659 191.014 47.5934 189.786 47.5934 188.272 47.5934 186.758 46.3659 185.53 44.8516 185.53 43.3374 185.53 42.1099 186.758 42.1099 188.272 42.1099 189.786 43.3374 191.014 44.8516 191.014Z" fill="#797673"/><path d="M58.147 185.687C59.6612 185.687 60.8887 184.46 60.8887 182.945 60.8887 181.431 59.6612 180.204 58.147 180.204 56.6328 180.204 55.4052 181.431 55.4052 182.945 55.4052 184.46 56.6328 185.687 58.147 185.687Z" fill="#797673"/><path d="M71.8415 180.194C73.3557 180.194 74.5832 178.967 74.5832 177.452 74.5832 175.938 73.3557 174.711 71.8415 174.711 70.3272 174.711 69.0997 175.938 69.0997 177.452 69.0997 178.967 70.3272 180.194 71.8415 180.194Z" fill="#797673"/><path d="M198.984 108.329 92.7206 151.86 87.4319 138.669 194.341 96.749 198.984 108.329Z" fill="#B3AFAB"/><path d="M187.369 99.2974 186.161 99.7819 190.968 111.774 192.177 111.29 187.369 99.2974Z" fill="#E1DFDD"/><path d="M178.155 102.915 176.946 103.399 181.805 115.519 183.013 115.035 178.155 102.915Z" fill="#E1DFDD"/><path d="M168.943 106.526 167.734 107.01 172.644 119.258 173.853 118.774 168.943 106.526Z" fill="#E1DFDD"/><path d="M159.733 110.141 158.524 110.626 163.485 123.002 164.694 122.517 159.733 110.141Z" fill="#E1DFDD"/><path d="M150.518 113.759 149.31 114.243 154.322 126.747 155.531 126.263 150.518 113.759Z" fill="#E1DFDD"/><path d="M141.306 117.37 140.098 117.854 145.162 130.486 146.37 130.002 141.306 117.37Z" fill="#E1DFDD"/><path d="M132.092 120.987 130.883 121.471 135.997 134.227 137.205 133.742 132.092 120.987Z" fill="#E1DFDD"/><path d="M122.882 124.603 121.673 125.087 126.838 137.97 128.046 137.486 122.882 124.603Z" fill="#E1DFDD"/><path d="M113.666 128.215 112.457 128.7 117.673 141.711 118.881 141.227 113.666 128.215Z" fill="#E1DFDD"/><path d="M104.456 131.831 103.247 132.316 108.514 145.455 109.723 144.97 104.456 131.831Z" fill="#E1DFDD"/><path d="M95.241 135.448 94.0325 135.933 99.351 149.2 100.56 148.715 95.241 135.448Z" fill="#E1DFDD"/><path d="M189.124 123.325C187.085 125.583 183.607 125.758 181.35 123.72L177.316 120.075C175.059 118.037 174.883 114.559 176.921 112.301 178.96 110.044 182.438 109.869 184.695 111.907L188.729 115.552C190.986 117.59 191.162 121.068 189.124 123.325Z" fill="#8A6FE8"/><path d="M197.016 119.082C194.978 121.339 191.5 121.515 189.242 119.477L185.208 115.832C182.951 113.794 182.775 110.315 184.814 108.058 186.852 105.801 190.331 105.625 192.588 107.664L196.622 111.308C198.874 113.347 199.05 116.825 197.016 119.082Z" fill="#8A6FE8"/><path d="M169.803 113.161C166.786 113.513 164.054 111.346 163.702 108.329L163.075 102.926C162.723 99.9089 164.89 97.1766 167.907 96.825 170.925 96.4734 173.657 98.6402 174.008 101.658L174.636 107.06C174.987 110.078 172.825 112.81 169.803 113.161Z" fill="#8A6FE8"/><path d="M43.2408 165.497C29.6176 163.815 19.121 160.821 12.0314 156.597 2.92237 151.171 0.565512 144.437 0.194877 139.743-0.413344 132.031 3.84421 123.478 12.1882 115.666 18.8359 109.441 27.4888 104.271 34.7637 102.176L38.0567 113.589C26.6002 116.892 11.3567 130.215 12.0362 138.807 12.2975 142.104 16.0039 150.159 44.6996 153.703L43.2408 165.497Z" fill="#8A6FE8"/><path d="M49.5178 139.001 37.7478 151.627C35.6523 153.874 35.7711 157.4 38.0234 159.5 40.271 161.596 43.7967 161.477 45.897 159.225L57.667 146.599C59.7626 144.352 59.6438 140.826 57.3914 138.726 55.1391 136.63 51.6133 136.754 49.5178 139.001Z" fill="#8A6FE8"/><path d="M43.8015 172.13 54.1032 177.481C56.8593 178.887 60.233 177.795 61.6395 175.039 63.046 172.283 61.9531 168.909 59.1971 167.502L48.634 162.014 43.8015 172.13Z" fill="#8A6FE8"/><path d="M49.6556 169.874 65.6405 170.71C68.7291 170.862 71.3568 168.477 71.5041 165.388 71.6562 162.299 69.2708 159.672 66.1822 159.524L54.2981 158.864 49.6556 169.874Z" fill="#8A6FE8"/><path d="M48.2966 163.169 64.0676 160.351C67.1135 159.814 69.1472 156.906 68.6103 153.86 68.0733 150.814 65.1653 148.78 62.1194 149.317L46.0586 152.183 48.2966 163.169Z" fill="#8A6FE8"/><path d="M45.4076 172.649C51.8818 172.649 57.1301 167.4 57.1301 160.926 57.1301 154.452 51.8818 149.203 45.4076 149.203 38.9334 149.203 33.6851 154.452 33.6851 160.926 33.6851 167.4 38.9334 172.649 45.4076 172.649Z" fill="url(#paint14_radial)"/><path d="M37.6908 119.591C44.2988 119.591 49.6556 114.234 49.6556 107.626 49.6556 101.018 44.2988 95.661 37.6908 95.661 31.0828 95.661 25.7259 101.018 25.7259 107.626 25.7259 114.234 31.0828 119.591 37.6908 119.591Z" fill="url(#paint15_radial)"/></svg>